<?xml version="1.0" encoding="UTF-8"?>
<svg width="138px" height="41px" viewBox="0 0 138 41" version="1.1" xmlns="http://www.w3.org/2000/svg" xmlns:xlink="http://www.w3.org/1999/xlink">
    <!-- Generator: Sketch 55.2 (78181) - https://sketchapp.com -->
    <title>Group 29</title>
    <desc>Created with Sketch.</desc>
    <g id="Campus-Ambassador-/-Placement-Cell" stroke="none" stroke-width="1" fill="none" fill-rule="evenodd">
        <g id="Placement-Cell" transform="translate(-893.000000, -782.000000)" fill="#858585" fill-rule="nonzero">
            <g id="Group-29" transform="translate(893.000000, 782.000000)">
                <path d="M85.4149516,31.959931 C77.3957893,37.85773 65.7315533,41 55.6711497,41 C41.5768645,41 28.9406088,35.8273402 19.3176141,27.2223547 C18.5885993,26.545558 19.2204121,25.6270484 20.1438308,26.1588171 C30.4958403,32.1533014 43.2778989,35.7306549 56.4973664,35.7306549 C65.3913464,35.7306549 75.2087451,33.8936356 84.248528,30.074569 C85.6093555,29.5428002 86.7271781,30.9930786 85.4149516,31.959931 Z" id="Path"></path>
                <path d="M89.2124849,28.4490375 C88.1752947,27.1889289 82.2978841,27.8423185 79.6802139,28.1690134 C78.8899738,28.2623547 78.7418038,27.6089651 79.4826539,27.1422582 C84.1747043,24.0153219 91.8301551,24.9487357 92.7191752,25.9754909 C93.6081953,27.0022461 92.4722252,34.2828738 88.0765147,37.7365048 C87.3850547,38.2498824 86.7429846,37.9698583 87.0393246,37.2697979 C88.0271247,34.9362634 90.249675,29.7558168 89.2124849,28.4490375 Z" id="Path"></path>
                <path d="M79.7494737,4.44970414 L79.7494737,1.37278107 C79.7494737,0.899408284 80.0884211,0.615384615 80.5242105,0.615384615 L94.5663158,0.615384615 C95.0021053,0.615384615 95.3894737,0.946745562 95.3894737,1.37278107 L95.3894737,3.97633136 C95.3894737,4.40236686 95.0021053,4.9704142 94.3242105,5.91715976 L87.0610526,16.0473373 C89.7726316,16 92.6294737,16.3786982 95.0505263,17.704142 C95.5831579,17.9881657 95.7284211,18.4615385 95.7768421,18.887574 L95.7768421,22.1538462 C95.7768421,22.6272189 95.2926316,23.147929 94.76,22.8639053 C90.4505263,20.6390533 84.6884211,20.4023669 79.9431579,22.9112426 C79.4589474,23.147929 78.9263158,22.6745562 78.9263158,22.2011834 L78.9263158,19.0769231 C78.9263158,18.6035503 78.9263158,17.7514793 79.4589474,16.9940828 L87.8842105,5.20710059 L80.5726316,5.20710059 C80.1368421,5.20710059 79.7494737,4.87573964 79.7494737,4.44970414 L79.7494737,4.44970414 Z M28.5684211,23.5266272 L24.3073684,23.5266272 C23.92,23.4792899 23.5810526,23.1952663 23.5326316,22.816568 L23.5326316,1.42011834 C23.5326316,0.99408284 23.92,0.662721893 24.3557895,0.662721893 L28.3263158,0.662721893 C28.7621053,0.662721893 29.0526316,0.99408284 29.1010526,1.37278107 L29.1010526,4.16568047 L29.1978947,4.16568047 C30.2147368,1.46745562 32.2,0.189349112 34.8147368,0.189349112 C37.4778947,0.189349112 39.1726316,1.46745562 40.3347368,4.16568047 C41.3515789,1.46745562 43.7242105,0.189349112 46.2421053,0.189349112 C48.0336842,0.189349112 49.9705263,0.899408284 51.1810526,2.55621302 C52.5368421,4.35502959 52.2463158,6.95857988 52.2463158,9.27810651 L52.2463158,22.816568 C52.2463158,23.2426036 51.8589474,23.5739645 51.4231579,23.5739645 L47.2105263,23.5739645 C46.7747368,23.5266272 46.4357895,23.1952663 46.4357895,22.816568 L46.4357895,11.4556213 C46.4357895,10.556213 46.5326316,8.28402367 46.3389474,7.43195266 C46,6.01183432 45.08,5.58579882 43.8210526,5.58579882 C42.8042105,5.58579882 41.6905263,6.24852071 41.2547368,7.33727811 C40.8189474,8.4260355 40.8673684,10.2248521 40.8673684,11.4556213 L40.8673684,22.816568 C40.8673684,23.2426036 40.48,23.5739645 40.0442105,23.5739645 L35.7831579,23.5739645 C35.3473684,23.5266272 35.0084211,23.1952663 35.0084211,22.816568 L35.0084211,11.4556213 C35.0084211,9.0887574 35.3957895,5.53846154 32.3936842,5.53846154 C29.3431579,5.53846154 29.44,8.94674556 29.44,11.4556213 L29.44,22.816568 C29.3915789,23.1952663 29.0526316,23.5266272 28.5684211,23.5266272 L28.5684211,23.5266272 Z M107.494737,0.189349112 C113.837895,0.189349112 117.275789,5.49112426 117.275789,12.260355 C117.275789,18.7928994 113.498947,24 107.494737,24 C101.296842,24 97.9073684,18.6982249 97.9073684,12.0710059 C97.8589474,5.3964497 101.296842,0.189349112 107.494737,0.189349112 Z M107.494737,4.59171598 C104.347368,4.59171598 104.153646,8.80473373 104.153646,11.408284 C104.153646,14.0118343 104.105263,19.5976331 107.446316,19.5976331 C110.738947,19.5976331 110.932632,15.1005917 110.932632,12.3550296 C110.932632,10.556213 110.835789,8.37869822 110.303158,6.67455621 C109.818947,5.15976331 108.850526,4.59171598 107.494737,4.59171598 Z M125.458947,23.5266272 L121.197895,23.5266272 C120.762105,23.4792899 120.423158,23.147929 120.423158,22.7692308 L120.423158,1.32544379 C120.471579,0.946745562 120.810526,0.615384615 121.246316,0.615384615 L125.216842,0.615384615 C125.604211,0.615384615 125.894737,0.899408284 125.991579,1.23076923 L125.991579,4.49704142 L126.088421,4.49704142 C127.298947,1.56213018 128.945263,0.189349112 131.898947,0.189349112 C133.787368,0.189349112 135.675789,0.852071006 136.886316,2.69822485 C138,4.40236686 138,7.28994083 138,9.37278107 L138,22.8639053 C137.951579,23.2426036 137.612632,23.5266272 137.176842,23.5266272 L132.915789,23.5266272 C132.528421,23.4792899 132.189474,23.1952663 132.141053,22.8639053 L132.141053,11.2189349 C132.141053,8.85207101 132.431579,5.44378698 129.477895,5.44378698 C128.461053,5.44378698 127.492632,6.10650888 127.008421,7.14792899 C126.427368,8.47337278 126.330526,9.75147929 126.330526,11.2189349 L126.330526,22.7692308 C126.282105,23.1952663 125.894737,23.5266272 125.458947,23.5266272 Z M71.8568421,23.5739645 C70.4526316,22.4378698 70.1621053,21.8698225 69.3873684,20.7810651 C67.0631579,23.1005917 65.3684211,23.8106509 62.3663158,23.8106509 C58.7831579,23.8106509 55.9747368,21.6331361 55.9747368,17.3254438 C55.9747368,13.9171598 57.8631579,11.6449704 60.5263158,10.5088757 C62.8505263,9.5147929 66.0947368,9.32544379 68.5642105,9.04142012 L68.5642105,8.52071006 C68.5642105,7.52662722 68.6610526,6.34319527 68.0315789,5.49112426 C67.4989474,4.73372781 66.5305263,4.40236686 65.6589474,4.40236686 C64.0126316,4.40236686 62.56,5.20710059 62.2210526,6.9112426 C62.1242105,7.28994083 61.8821053,7.66863905 61.4947368,7.66863905 L57.3789474,7.24260355 C57.04,7.14792899 56.6526316,6.9112426 56.7494737,6.39053254 C57.7178947,1.46745562 62.2210526,0 66.2884211,0 C68.3705263,0 71.0821053,0.520710059 72.7284211,2.08284024 C74.8105263,3.97633136 74.6168421,6.53254438 74.6168421,9.27810651 L74.6168421,15.7633136 C74.6168421,17.704142 75.44,18.556213 76.2147368,19.6449704 C76.5052632,20.0236686 76.5536842,20.4970414 76.2147368,20.7337278 C75.2947368,21.443787 73.7452632,22.7692308 72.8736842,23.4792899 C72.5831579,23.7159763 72.1957895,23.7633136 71.8568421,23.5739645 Z M68.5642105,13.3017751 L68.5642105,12.4023669 C65.4652632,12.4023669 62.2210526,13.0650888 62.2210526,16.6153846 C62.2210526,18.4142012 63.1894737,19.6449704 64.8357895,19.6449704 C66.0463158,19.6449704 67.1115789,18.9349112 67.7894737,17.7514793 C68.6126316,16.2840237 68.5642105,14.9112426 68.5642105,13.3017751 Z M16.8989474,23.4792899 C16.6084211,23.7159763 16.2210526,23.7633136 15.8821053,23.5739645 C14.4778947,22.4378698 14.1873684,21.8698225 13.4126316,20.7810651 C11.0884211,23.1005917 9.39368421,23.8106509 6.39157895,23.8106509 C2.80842105,23.8106509 0,21.6331361 0,17.3254438 C0,13.9171598 1.88842105,11.6449704 4.55157895,10.5088757 C6.87578947,9.5147929 10.12,9.32544379 12.5894737,9.04142012 L12.5894737,8.52071006 C12.5894737,7.52662722 12.6863158,6.34319527 12.0568421,5.49112426 C11.5242105,4.73372781 10.5557895,4.40236686 9.68421053,4.40236686 C8.03789474,4.40236686 6.58526316,5.20710059 6.24631579,6.9112426 C6.14947368,7.28994083 5.90736842,7.66863905 5.52,7.66863905 L1.40421053,7.24260355 C1.06526316,7.14792899 0.677894737,6.9112426 0.774736842,6.39053254 C1.74315789,1.46745562 6.24631579,0 10.3136842,0 C12.3957895,0 15.1073684,0.520710059 16.7536842,2.08284024 C18.8357895,3.97633136 18.6421053,6.53254438 18.6421053,9.27810651 L18.6421053,15.7633136 C18.6421053,17.704142 19.4652632,18.556213 20.24,19.6449704 C20.5305263,20.0236686 20.5789474,20.4970414 20.24,20.7337278 C19.32,21.443787 17.7705263,22.7692308 16.8989474,23.4792899 Z M12.6378947,13.3017751 L12.6378947,12.4023669 C9.53894737,12.4023669 6.29473684,13.0650888 6.29473684,16.6153846 C6.29473684,18.4142012 7.26315789,19.6449704 8.90947368,19.6449704 C10.12,19.6449704 11.1852632,18.9349112 11.8631579,17.7514793 C12.6863158,16.2840237 12.6378947,14.9112426 12.6378947,13.3017751 Z" id="Shape"></path>
            </g>
        </g>
    </g>
</svg>