<svg xmlns="http://www.w3.org/2000/svg" width="90" height="90" viewBox="0 0 90 90">
    <path fill="#223E6D" fill-rule="nonzero" d="M26.129 39.194h2.903a2.906 2.906 0 0 0 2.903 2.903 2.906 2.906 0 0 0 2.904-2.903h2.903A5.812 5.812 0 0 1 31.935 45a5.812 5.812 0 0 1-5.806-5.806zm-1.452-7.259a1.453 1.453 0 0 0 0-2.903 1.453 1.453 0 0 0 0 2.903zm14.517 0a1.453 1.453 0 0 0 0-2.903 1.453 1.453 0 0 0 0 2.903zM80.44 43.548l9.56 9.56V90H49.355v-8.71H0V67.245c0-4.381 2.793-8.256 6.948-9.64l14.826-4.942v-4.066a15.992 15.992 0 0 1-5.21-8.039c-3.595-.428-6.403-3.462-6.403-7.17V21.773C10.161 9.768 19.93 0 31.935 0 43.942 0 53.71 9.768 53.71 21.774v11.613c0 3.71-2.808 6.743-6.404 7.171a15.992 15.992 0 0 1-5.21 8.04v4.065l7.259 2.42V43.548H80.44zm.85 8.71h3.754l-3.754-3.754v3.754zM41.037 55.37l-6.863 6.864 6.938 4.957 2.213-11.059-2.288-.762zm9.77-21.983c0-1.89-1.218-3.486-2.904-4.088v6.991c0 .406-.03.805-.06 1.204 1.717-.584 2.963-2.195 2.963-4.107zm-34.778 4.107c-.03-.4-.061-.798-.061-1.204V29.3c-1.686.6-2.903 2.197-2.903 4.087 0 1.912 1.246 3.523 2.964 4.107zm7.923-17.171c1.717 0 3.417.567 4.791 1.598l3.192 2.394 3.194-2.394a8.026 8.026 0 0 1 4.79-1.598c3.689 0 6.794 2.52 7.706 5.925a7.18 7.18 0 0 1 3.181 1.37v-5.844c0-10.405-8.465-18.87-18.87-18.87-10.406 0-18.871 8.465-18.871 18.87v5.844a7.18 7.18 0 0 1 3.181-1.37c.912-3.406 4.017-5.925 7.706-5.925zm7.983 29.032C39.14 49.355 45 43.495 45 36.29v-7.984a5.086 5.086 0 0 0-5.08-5.08 5.114 5.114 0 0 0-3.05 1.016l-4.935 3.702-4.933-3.702a5.121 5.121 0 0 0-3.05-1.016 5.086 5.086 0 0 0-5.081 5.08v7.984c0 7.205 5.86 13.065 13.064 13.065zm-7.258 1.141v2.613l7.258 7.258 7.259-7.258v-2.613a15.864 15.864 0 0 1-7.259 1.762c-2.614 0-5.077-.644-7.258-1.762zm-4.131 5.636l2.213 11.059 6.938-4.957-6.863-6.864-2.288.762zm28.809 22.255V58.142L46.1 57.057l-3.02 15.105-11.145-7.959-11.145 7.96-3.02-15.104-9.905 3.3a7.25 7.25 0 0 0-4.962 6.886v11.142h8.71v-8.71h2.903v8.71h34.839zm37.742 8.71V55.16h-8.71v-8.71H52.258v40.646h34.839zm-17.42-17.42h14.517v14.517H69.677V69.677zm2.904 11.613h8.71v-8.71h-8.71v8.71zm-17.42 2.904h11.613V81.29H55.161v2.904zm0-5.807h11.613v-2.903H55.161v2.903zm0-5.806h11.613v-2.904H55.161v2.904zm2.904-23.226H55.16v2.903h2.904v-2.903zm17.419 0H60.968v2.903h14.516v-2.903zm0 5.806H55.16v2.904h20.323V55.16zm5.806 8.71h2.904v-2.903H81.29v2.903zm-2.903-2.903H55.161v2.903h23.226v-2.903zm8.636-45.542A15.864 15.864 0 0 1 90 24.677c0 8.804-7.164 15.968-15.968 15.968s-15.967-7.164-15.967-15.968S65.228 8.71 74.032 8.71c4.304 0 8.209 1.72 11.085 4.498l2.362-2.576 2.14 1.962-2.596 2.832zm-2.012 2.195L72.734 31.014l-8.317-6.655 1.814-2.267 6.199 4.958 10.73-11.705a13.026 13.026 0 0 0-9.128-3.732c-7.204 0-13.064 5.86-13.064 13.064 0 7.205 5.86 13.065 13.064 13.065s13.065-5.86 13.065-13.065c0-2.6-.773-5.018-2.086-7.056z"/>
</svg>
