<svg xmlns="http://www.w3.org/2000/svg" width="90" height="90" viewBox="0 0 90 90">
    <path fill="#223E6D" fill-rule="nonzero" d="M82.742 20.323H81.29V0H8.71v20.323H7.258C3.256 20.323 0 23.579 0 27.58v46.451c0 4.002 3.256 7.258 7.258 7.258H26.13v5.807h-5.806V90h49.354v-2.903h-5.806V81.29h18.87c4.003 0 7.259-3.256 7.259-7.258V27.581c0-4.002-3.256-7.258-7.258-7.258zM11.612 2.516h66.775v58.452H11.613V2.516zm-4.354 20.71H8.71V63.87h72.58V23.226h1.452a4.36 4.36 0 0 1 4.355 4.355v39.193H2.903V27.581a4.36 4.36 0 0 1 4.355-4.355zm53.71 63.87H29.032V81.29h31.936v5.807zm21.774-8.709H7.258a4.36 4.36 0 0 1-4.355-4.355v-4.355h84.194v4.355a4.36 4.36 0 0 1-4.355 4.355zM38.285 30.142l-4.898-1.398v-.386c1.809-1.363 2.903-3.507 2.903-5.776v-2.601c0-3.902-2.904-7.209-6.613-7.531a7.292 7.292 0 0 0-5.548 1.878 7.27 7.27 0 0 0-2.355 5.35v2.903c0 2.268 1.095 4.414 2.903 5.776v.386l-4.897 1.4a7.291 7.291 0 0 0-5.264 6.979v4.33h29.032v-4.33a7.291 7.291 0 0 0-5.263-6.98zm2.36 8.406H17.42v-1.426c0-1.935 1.3-3.657 3.159-4.189l7.003-2v-4.186l-.722-.42c-1.366-.795-2.182-2.196-2.182-3.746v-2.904c0-1.216.516-2.388 1.414-3.21a4.3 4.3 0 0 1 3.336-1.127c2.22.193 3.96 2.23 3.96 4.64v2.6c0 1.55-.816 2.952-2.182 3.747l-.721.42v4.186l7.003 2a4.377 4.377 0 0 1 3.158 4.189v1.426zm-26.129 5.807h29.032v2.903H14.516v-2.903zm0 5.806h29.032v2.904H14.516V50.16zm31.936 2.904h29.032V29.839H46.452v23.226zm2.903-20.323H72.58v17.42H49.355v-17.42zm-2.903-20.323h29.032v2.904H46.452v-2.904zm0 5.807h29.032v2.903H46.452v-2.903zm20.322 8.71H46.452v-2.904h20.322v2.903z"/>
</svg>
