<svg xmlns="http://www.w3.org/2000/svg" width="254" height="234" viewBox="0 0 254 234">
    <defs>
        <linearGradient id="a" x1="50%" x2="50%" y1="0%" y2="100%">
            <stop offset="0%" stop-color="#68707D"/>
            <stop offset="100%" stop-color="#373D47"/>
        </linearGradient>
        <linearGradient id="b" x1="50%" x2="50%" y1="0%" y2="100%">
            <stop offset="0%" stop-color="#525B64"/>
            <stop offset="100%" stop-color="#292F35"/>
        </linearGradient>
        <linearGradient id="c" x1="50%" x2="50%" y1="0%" y2="100%">
            <stop offset="0%" stop-color="#68707D"/>
            <stop offset="100%" stop-color="#373D47"/>
        </linearGradient>
    </defs>
    <g fill="none" fill-rule="evenodd">
        <path fill="url(#a)" fill-rule="nonzero" d="M27.56 97.933C12.518 97.933 0 110.388 0 125.519v69.18C0 209.833 12.519 222 27.56 222h199.448a26.859 26.859 0 0 0 19.152-7.991 27.198 27.198 0 0 0 7.84-19.31v-69.18c0-15.131-11.951-27.586-26.992-27.586h-8.326l-73.208-68.917a20.11 20.11 0 0 0 1.982-8.733C147.449 9.074 138.411-.007 127.27 0c-11.14.007-20.165 9.1-20.158 20.31a19.967 19.967 0 0 0 1.982 8.701L35.885 97.933H27.56zm217.348 96.623c0 10.104-8.142 18.296-18.184 18.296H27.275c-10.042 0-18.183-8.192-18.183-18.296v-69.18c0-10.104 8.141-18.296 18.183-18.296h199.45c10.04 0 18.183 8.192 18.183 18.296v69.18zM127.284 9.17c6.12 0 11.08 4.992 11.08 11.15 0 6.156-4.96 11.148-11.08 11.148s-11.08-4.992-11.08-11.149c.006-6.155 4.962-11.142 11.08-11.149zm-12.486 27.004a19.858 19.858 0 0 0 24.971-.018l65.613 61.777H49.185l65.613-61.76z"/>
        <path fill="url(#b)" d="M69.145 147.393v10.25h15.42v-10.25c0-1.464.324-2.563.973-3.295.65-.732 1.504-1.098 2.562-1.098 1.075 0 1.945.362 2.61 1.086.666.724.999 1.826.999 3.307v28.19c0 1.48-.337 2.587-1.01 3.319-.674.732-1.54 1.098-2.599 1.098-1.074 0-1.932-.37-2.574-1.11-.641-.74-.962-1.843-.962-3.308V163.55h-15.42v12.032c0 1.481-.336 2.588-1.01 3.32-.673.732-1.54 1.098-2.598 1.098-1.074 0-1.932-.37-2.574-1.11-.641-.74-.962-1.843-.962-3.308v-28.189c0-1.464.317-2.563.95-3.295.634-.732 1.496-1.098 2.586-1.098 1.075 0 1.945.362 2.61 1.086.666.724.999 1.826.999 3.307zm38.072 9.299v19.257c0 1.334-.313 2.343-.938 3.026-.626.683-1.42 1.025-2.382 1.025-.962 0-1.744-.35-2.345-1.05-.602-.7-.902-1.7-.902-3.001v-19.062c0-1.318.3-2.31.902-2.977.601-.667 1.383-1.001 2.345-1.001.962 0 1.756.334 2.382 1 .625.668.938 1.595.938 2.783zm-3.248-6.883c-.914 0-1.696-.284-2.345-.854-.65-.57-.974-1.375-.974-2.416 0-.944.332-1.72.998-2.33.665-.611 1.44-.916 2.321-.916.85 0 1.604.276 2.262.83.657.553.986 1.358.986 2.416 0 1.025-.32 1.826-.962 2.404-.642.578-1.404.866-2.286.866zm18.275 20.575v5.565c0 1.35-.313 2.363-.938 3.038-.626.675-1.42 1.013-2.382 1.013-.946 0-1.724-.342-2.333-1.025-.61-.683-.914-1.692-.914-3.026v-18.55c0-2.993 1.066-4.49 3.2-4.49 1.09 0 1.875.35 2.357 1.05.48.7.745 1.732.793 3.099.786-1.367 1.592-2.4 2.418-3.1.826-.7 1.928-1.049 3.308-1.049 1.379 0 2.718.35 4.017 1.05 1.299.7 1.948 1.627 1.948 2.782 0 .813-.276 1.484-.83 2.013-.553.53-1.15.793-1.792.793-.24 0-.822-.15-1.744-.451-.922-.301-1.736-.452-2.441-.452-.963 0-1.748.257-2.358.77-.61.512-1.082 1.272-1.42 2.281-.336 1.01-.568 2.209-.697 3.6-.128 1.391-.192 3.088-.192 5.089zm33.886-2.294h-12.845c.016 1.513.317 2.847.902 4.002.585 1.156 1.363 2.026 2.333 2.612.97.586 2.041.878 3.212.878.786 0 1.503-.093 2.153-.28a6.965 6.965 0 0 0 1.888-.879c.61-.398 1.17-.826 1.684-1.281a78.615 78.615 0 0 0 1.997-1.855c.336-.293.817-.44 1.443-.44.673 0 1.219.188 1.636.562.417.374.625.903.625 1.586 0 .602-.232 1.306-.698 2.112-.465.805-1.166 1.578-2.104 2.318-.939.74-2.117 1.355-3.537 1.843-1.419.488-3.05.732-4.895.732-4.218 0-7.497-1.22-9.839-3.661-2.341-2.44-3.512-5.752-3.512-9.933 0-1.97.289-3.796.866-5.48.578-1.684 1.42-3.128 2.526-4.332 1.107-1.204 2.47-2.127 4.09-2.77 1.62-.642 3.415-.964 5.388-.964 2.566 0 4.767.55 6.603 1.648 1.837 1.098 3.212 2.517 4.126 4.258.914 1.741 1.371 3.515 1.371 5.321 0 1.676-.473 2.762-1.42 3.258-.945.497-2.277.745-3.993.745zm-12.845-3.783h11.907c-.16-2.278-.765-3.983-1.816-5.113-1.05-1.131-2.434-1.697-4.15-1.697-1.635 0-2.978.574-4.029 1.721-1.05 1.147-1.688 2.843-1.912 5.089zm43.509 11.886v-.66c-.882 1.026-1.752 1.86-2.61 2.502a9.777 9.777 0 0 1-2.79 1.465c-1.003.333-2.098.5-3.284.5-1.572 0-3.027-.338-4.366-1.013-1.34-.675-2.498-1.64-3.477-2.892-.978-1.253-1.72-2.725-2.225-4.418-.505-1.692-.757-3.522-.757-5.491 0-4.165 1.002-7.411 3.007-9.738 2.004-2.327 4.642-3.49 7.914-3.49 1.892 0 3.488.33 4.787.988 1.299.66 2.566 1.672 3.8 3.039v-9.836c0-1.367.27-2.4.807-3.1.537-.7 1.303-1.049 2.297-1.049.994 0 1.76.321 2.297.964.537.643.806 1.59.806 2.843v29.386c0 1.269-.289 2.22-.866 2.855-.577.635-1.323.952-2.237.952-.898 0-1.64-.33-2.225-.988-.586-.66-.878-1.6-.878-2.82zm-12.918-9.787c0 1.806.276 3.343.83 4.612.553 1.27 1.31 2.226 2.273 2.868a5.559 5.559 0 0 0 3.151.964c1.155 0 2.21-.305 3.164-.915.954-.61 1.716-1.546 2.285-2.807.57-1.26.854-2.835.854-4.722 0-1.774-.285-3.3-.854-4.577-.57-1.277-1.34-2.253-2.31-2.928a5.462 5.462 0 0 0-3.187-1.013c-1.203 0-2.277.346-3.223 1.037-.946.692-1.68 1.684-2.201 2.978-.522 1.293-.782 2.794-.782 4.503z"/>
        <path fill="url(#c)" fill-rule="nonzero" d="M18.948 234c-2.18 0-3.948-1.567-3.948-3.5s1.768-3.5 3.948-3.5h156.879c2.18 0 3.948 1.567 3.948 3.5s-1.767 3.5-3.948 3.5H18.948zm172.739 0c-2.18 0-3.948-1.567-3.948-3.5s1.767-3.5 3.948-3.5h43.365c2.18 0 3.948 1.567 3.948 3.5s-1.768 3.5-3.948 3.5h-43.365z"/>
    </g>
</svg>
