<svg xmlns="http://www.w3.org/2000/svg" width="90" height="93" viewBox="0 0 90 93">
    <g fill="#223E6D" fill-rule="evenodd">
        <path fill-rule="nonzero" d="M30.02 68.654l-.055-.013a10.586 10.586 0 0 0 2.73-7.1v-8c0-4.71-3.847-8.541-8.575-8.541H13.117c-1 0-1.812.808-1.812 1.805v14.737c0 2.725 1.034 5.213 2.73 7.099l-.056.013C6.151 69.373 0 75.948 0 83.93v7.265C0 92.192.811 93 1.811 93H42.19c1 0 1.811-.808 1.811-1.805V83.93c0-7.982-6.152-14.558-13.98-15.276zM22 68.586c-3.9 0-7.072-3.16-7.072-7.044v-3.227a6.918 6.918 0 0 0 3.317.842h10.826v2.385c0 3.884-3.172 7.044-7.071 7.044zm3.158 3.61L22 75.34l-3.158-3.146h6.316zm-10.23-23.587h9.192c2.73 0 4.951 2.213 4.951 4.932v2.007H18.245a3.314 3.314 0 0 1-3.317-3.304v-3.635zM3.623 89.391V83.93c0-5.938 4.451-10.857 10.204-11.627l6.892 6.866a1.81 1.81 0 0 0 1.28.528 1.81 1.81 0 0 0 1.281-.528l6.893-6.866c5.752.77 10.204 5.689 10.204 11.627v5.461H3.623zM81.02 69.892a7.584 7.584 0 0 0 2.268-5.41v-7.369c0-4.182-2.106-7.881-5.314-10.11.029-.128.044-.262.044-.398v-4.308c4.256-.531 7.558-4.156 7.558-8.535v-18.16C85.576 10.858 81.7 7 76.937 7H48.639C43.875 7 40 10.859 40 15.601v18.161c0 4.743 3.875 8.602 8.639 8.602h20.725l2.478 2.467a12.488 12.488 0 0 0-.928-.038c-6.823 0-12.374 5.527-12.374 12.32v7.368c0 2.114.869 4.029 2.269 5.41-5.296 2.437-8.981 7.773-8.981 13.952v7.345c0 1 .815 1.812 1.82 1.812H88.18c1.005 0 1.82-.812 1.82-1.812v-7.345c0-6.18-3.685-11.515-8.98-13.951zM71.404 39.27a1.825 1.825 0 0 0-1.287-.53h-21.48c-2.755 0-4.998-2.233-4.998-4.978v-18.16c0-2.745 2.243-4.977 4.999-4.977h28.298c2.756 0 4.998 2.232 4.998 4.976v.098H70.39c-1.006 0-1.82.811-1.82 1.812s.814 1.813 1.82 1.813h11.546v14.438c0 2.745-2.242 4.977-4.998 4.977h-.739c-1.005 0-1.82.812-1.82 1.813v1.678l-2.973-2.96zm-9.224 17.843c0-4.795 3.917-8.695 8.733-8.695 4.815 0 8.733 3.9 8.733 8.695v7.368c0 2.206-1.802 4-4.016 4H66.197c-2.215 0-4.016-1.794-4.016-4v-7.368zM86.36 89.375H55.468v-5.532c0-6.472 5.289-11.738 11.79-11.738h7.313c6.5 0 11.789 5.266 11.789 11.738v5.532z"/>
        <path d="M37.159 0H15.74C10.92 0 7 3.82 7 8.515v17.977c0 4.335 3.341 7.923 7.646 8.449v4.265c0 .725.449 1.38 1.137 1.657a1.88 1.88 0 0 0 2.006-.389l5.612-5.467h9.57c1.017 0 1.842-.803 1.842-1.794 0-.99-.825-1.794-1.842-1.794H22.64c-.489 0-.957.19-1.302.526l-3.008 2.93v-1.662c0-.99-.825-1.794-1.841-1.794h-.748c-2.788 0-5.057-2.21-5.057-4.927V8.515c0-2.717 2.269-4.927 5.057-4.927H37.16c1.016 0 1.841-.803 1.841-1.794C39 .804 38.175 0 37.159 0z"/>
        <path fill-rule="nonzero" d="M15.617 15C14.724 15 14 14.328 14 13.5s.724-1.5 1.617-1.5h18.766c.893 0 1.617.672 1.617 1.5s-.724 1.5-1.617 1.5H15.617zM15.617 21C14.724 21 14 20.328 14 19.5s.724-1.5 1.617-1.5h18.766c.893 0 1.617.672 1.617 1.5s-.724 1.5-1.617 1.5H15.617zM15.63 26c-.9 0-1.63-.672-1.63-1.5s.73-1.5 1.63-1.5h8.74c.9 0 1.63.672 1.63 1.5s-.73 1.5-1.63 1.5h-8.74z"/>
    </g>
</svg>
