<?xml version="1.0" encoding="UTF-8"?>
<svg width="91px" height="32px" viewBox="0 0 91 32" version="1.1" xmlns="http://www.w3.org/2000/svg" xmlns:xlink="http://www.w3.org/1999/xlink">
    <!-- Generator: Sketch 55.2 (78181) - https://sketchapp.com -->
    <title>Group 29</title>
    <desc>Created with Sketch.</desc>
    <g id="Campus-Ambassador-/-Placement-Cell" stroke="none" stroke-width="1" fill="none" fill-rule="evenodd">
        <g id="Placement-Cell" transform="translate(-925.000000, -773.000000)">
            <g id="Group-29" transform="translate(926.002744, 773.177350)">
                <path d="M46.965347,10.9920634 C45.5642232,11.2950457 44.3051911,12.2324389 43.6140613,13.49174 C42.9702955,14.6279091 42.7999364,16.0198048 43.150406,17.2790478 C43.4911822,18.5762579 44.3714193,19.7124271 45.5265527,20.3752262 C46.681686,21.0380254 48.1015,21.2177597 49.3795125,20.8676378 C50.6765054,20.5172256 51.8124842,19.636725 52.4751724,18.4719935 C53.1281673,17.3262455 53.3082777,15.9155404 52.9579823,14.6373138 C52.6077449,13.3306409 51.7083533,12.1755463 50.5155494,11.5127471 C49.4456246,10.9163033 48.1580929,10.7363949 46.965347,10.9920634 Z M40.0545719,10.7837667 C41.7396469,8.13262799 44.8068653,6.42828722 47.9593503,6.42828722 C51.0550102,6.37145264 54.1127093,7.95271955 55.8735317,10.4997099 C57.0758549,12.2134554 57.6819502,14.3344476 57.5776451,16.4268774 C57.4545338,19.4946676 55.722095,22.4298631 53.1094771,24.0394602 C51.102316,25.3177448 48.5935969,25.781652 46.2552949,25.3272076 C43.2259212,24.7685567 40.5563041,22.6382179 39.3351167,19.8165754 C38.0381238,16.9382145 38.3126719,13.4159799 40.0545719,10.7837667 L40.0545719,10.7837667 Z M58.9879399,6.44727078 C60.4082762,6.41882446 61.8187451,6.40936171 63.238501,6.44727078 C63.2199269,10.3671733 63.2199269,14.277613 63.2199269,18.1975155 C63.2007724,19.1538343 63.2199269,20.1006903 63.2100594,21.0569509 C65.0465712,21.0664137 66.8836633,21.0569509 68.7195946,21.0664137 C67.8965309,22.5435323 67.0160036,24.011072 66.1923595,25.4976533 C63.7875971,25.5165788 61.3828347,25.5072902 58.9687853,25.4976533 C58.9786528,22.4772349 58.9786528,19.4473538 58.9879399,16.4268774 C58.9786528,13.094014 59.0070944,9.77067143 58.9879399,6.44727078 Z M78.773974,6.30521336 C81.3110766,10.8405432 83.8290247,15.4043194 86.3568404,19.9491701 C87.3795754,21.804973 88.4295911,23.6418504 89.4331716,25.507116 C87.7580222,25.4976533 86.0915793,25.5260415 84.4257169,25.4976533 C82.5601832,22.0890298 80.6482143,18.7087945 78.783261,15.3001711 C77.3820792,17.6862365 76.0470675,20.110153 74.6841947,22.5056232 C74.1258115,23.4997929 73.5476934,24.4843258 73.0084648,25.4881325 C71.3611765,25.5165788 69.7138881,25.4976533 68.0665998,25.507116 C69.0986219,23.6513131 70.139931,21.7955102 71.1719531,19.9397073 C73.6997687,15.3948566 76.2461584,10.850006 78.773974,6.30521336 Z M10.2246644,11.5507142 C9.06024403,13.018312 8.50174479,14.9593377 8.74785129,16.8151406 C8.88988493,17.9325004 9.32533091,18.9833886 9.9122717,19.9302446 C9.8365243,19.87341 9.68508754,19.7503361 9.60934014,19.6935015 C9.42946182,19.6272042 9.42946182,19.8355009 9.5146704,19.9302446 C9.96903872,20.820266 10.7169355,21.5209162 11.5121381,22.117418 C12.2032678,22.4961604 12.8564368,22.9508371 13.5948724,23.2441825 C14.4752836,23.5566275 15.4030006,23.7649242 16.3401789,23.6891641 C17.4194487,23.5848416 18.5175829,23.3954704 19.4926638,22.8938283 C20.5055895,22.4015329 21.3576171,21.6156018 22.1055139,20.782415 C22.6356296,20.2426896 22.6924547,19.4473538 23.090056,18.8318684 C23.5350212,18.0838464 23.6201717,17.1843622 23.6296329,16.3322499 C23.6486133,15.4137822 23.4592738,14.5048352 23.1941869,13.6337393 C23.0616725,13.0277747 22.7208382,12.4975122 22.3895231,11.9862332 C21.3197725,10.4807844 19.7672119,9.27831793 17.9495645,8.85220371 C15.1379718,8.13262799 11.994948,9.26885517 10.2246644,11.5507142 Z M14.0681631,3.37001786 C11.5878855,3.97598246 9.30640857,5.25420902 7.35624672,6.87332695 C6.79768943,7.40353147 6.26751566,7.98110781 5.96464214,8.70074158 C5.89835591,8.86166646 5.86045319,9.0415749 5.75632227,9.19309508 C5.78470578,9.19309508 5.83206968,9.18357427 5.86045319,9.17411152 C6.40008813,8.42614754 6.96810658,7.69705102 7.64971711,7.0721609 C9.57143742,5.28265533 12.1274624,4.24111375 14.7213901,4.02335429 C17.6466329,3.758223 20.6381619,4.48726147 23.1184395,6.03061931 C23.9704672,6.51351006 24.7656698,7.09108641 25.4472803,7.80119937 C26.6590066,9.05103766 27.5299566,10.6323046 28.0316888,12.2987363 C28.5618626,13.8325733 28.9973666,15.461154 28.7890468,17.0991974 C28.5145567,18.8319845 28.476654,20.6403575 27.76666,22.2783429 C27.1607388,23.2157361 26.6022396,24.1817499 25.9774541,25.0999854 C23.9420837,27.4102327 21.3292336,29.3039447 18.3187823,30.0425039 C18.034773,30.0708922 17.7792054,30.2318171 17.4856769,30.2034288 C17.7792054,30.2697262 18.0442342,30.0992805 18.3377046,30.0992805 C21.2534862,29.5595551 23.9704672,28.0539322 25.9963764,25.8953212 C27.8897132,23.8785353 29.1677257,21.2557849 29.50856,18.5004978 C29.5180212,17.3642707 29.50856,16.2375643 29.50856,15.1013371 C29.5464047,14.4575215 29.3665264,13.8325733 29.2150896,13.2076832 C28.4293482,10.2251159 26.5359533,7.59296072 24.0840593,5.74656252 C23.364604,5.216358 22.6261685,4.69561623 21.7931212,4.35472486 C19.3790718,3.30372052 16.671552,3.0575728 14.0681631,3.37001786 L14.0681631,3.37001786 Z M13.6895422,1.13547256 C10.9725612,1.61836331 8.41653622,2.90605262 6.34332111,4.7240045 C4.11855315,6.66503024 2.43347818,9.22148335 1.54360582,12.033605 C1.22175192,13.6337393 0.880917631,15.26232 0.899898015,16.9003635 C1.24067426,19.3337427 1.97905181,21.7576592 3.36125326,23.812238 C4.30795068,25.232522 5.56698279,26.4349884 6.98702892,27.3628609 C7.06277632,27.4102327 7.14792685,27.4481418 7.22367425,27.47653 C6.39062696,26.8894909 5.68057487,26.1604525 4.95165849,25.4502814 C2.58497299,23.0547532 1.2595966,19.6935015 1.26905777,16.3322499 C1.25013543,13.453889 2.15898817,10.5849327 3.76831574,8.19892533 C4.45938744,7.48875431 4.92327498,6.59873291 5.58596317,5.85071087 C7.77277036,3.758223 10.5560376,2.32847627 13.4812803,1.58997505 C16.671552,1.11654705 19.9943961,1.65621433 22.9007165,3.04811004 C25.646081,4.35472486 28.0316888,6.44727078 29.565327,9.07942592 C30.7392086,11.0678235 31.3829745,13.3592034 31.4397995,15.6599879 C31.4776442,14.8172803 31.5533916,13.9461844 31.3072271,13.1224603 C31.0042955,11.8726221 30.7202863,10.5943955 30.1333455,9.44870556 C29.0825172,7.68758826 28.0033053,5.88861994 26.460264,4.51570779 C25.2863244,3.47416621 23.9137002,2.66936765 22.4557513,2.0917913 C21.1872,1.75095798 19.9091875,1.44791762 18.631175,1.12600981 C17.002867,0.832490259 15.3177921,0.851415768 13.6895422,1.13547256 L13.6895422,1.13547256 Z M13.5002027,0.235988404 C15.4976704,-0.104902972 17.5614243,-0.0764566545 19.5589501,0.321211248 C20.5434922,0.491598883 21.4522869,0.965084929 22.3043145,1.45738038 C23.2699343,2.03495672 24.2544764,2.5652193 25.2484797,3.07649831 C27.6436067,4.66716992 29.6032298,6.93962428 30.7202863,9.60968849 C31.3545329,11.086749 31.7332119,12.6679579 31.8941679,14.2681503 C32.2728468,16.3701009 32.064585,18.5478697 31.3735133,20.5645974 C30.8244172,22.5624578 29.565327,24.2288895 28.5524014,25.9992373 C28.4103678,26.2359803 28.2115671,26.444277 28.0316888,26.6620365 C26.7252928,28.2339568 25.1822515,29.6542407 23.2699343,30.4401138 C23.3550848,30.3265027 23.4024487,30.2034288 23.4213711,30.0708922 C23.2036481,30.118206 22.9859251,30.1752147 22.7682021,30.241454 C22.8912553,30.0805291 23.0805948,29.9951321 23.251012,29.881463 C23.8757974,29.4743903 24.4721994,29.0293506 25.0402179,28.5464599 C25.1348876,28.461237 25.267402,28.4139233 25.3053047,28.2813286 C25.0780625,28.3760722 24.9360869,28.5938317 24.7278251,28.7263683 C21.7268349,30.8946163 17.9684868,32.08762 14.2575606,31.7657122 C10.4329263,31.4532091 6.78822827,29.5974642 4.23220328,26.7380288 C2.46186169,24.7780195 1.17438803,22.3824913 0.521219047,19.8260382 C-0.255061228,16.8909007 -0.169852656,13.7284249 0.814631399,10.850006 C1.38270789,9.18357427 2.21575519,7.60242347 3.33281171,6.23891602 C5.08423095,4.05174255 7.32780516,2.21486516 9.9122717,1.1070843 C11.1050756,0.794639241 12.2789572,0.434822356 13.5002027,0.235988404 L13.5002027,0.235988404 Z" id="Fill-1" fill="#858585"></path>
                <path d="M46.965347,10.9920634 C45.5642232,11.2950457 44.3051911,12.2324389 43.6140613,13.49174 C42.9702955,14.6279091 42.7999364,16.0198048 43.150406,17.2790478 C43.4911822,18.5762579 44.3714193,19.7124271 45.5265527,20.3752262 C46.681686,21.0380254 48.1015,21.2177597 49.3795125,20.8676378 C50.6765054,20.5172256 51.8124842,19.636725 52.4751724,18.4719935 C53.1281673,17.3262455 53.3082777,15.9155404 52.9579823,14.6373138 C52.6077449,13.3306409 51.7083533,12.1755463 50.5155494,11.5127471 C49.4456246,10.9163033 48.1580929,10.7363949 46.965347,10.9920634 Z M40.0545719,10.7837667 C41.7396469,8.13262799 44.8068653,6.42828722 47.9593503,6.42828722 C51.0550102,6.37145264 54.1127093,7.95271955 55.8735317,10.4997099 C57.0758549,12.2134554 57.6819502,14.3344476 57.5776451,16.4268774 C57.4545338,19.4946676 55.722095,22.4298631 53.1094771,24.0394602 C51.102316,25.3177448 48.5935969,25.781652 46.2552949,25.3272076 C43.2259212,24.7685567 40.5563041,22.6382179 39.3351167,19.8165754 C38.0381238,16.9382145 38.3126719,13.4159799 40.0545719,10.7837667 L40.0545719,10.7837667 Z M58.9879399,6.44727078 C60.4082762,6.41882446 61.8187451,6.40936171 63.238501,6.44727078 C63.2199269,10.3671733 63.2199269,14.277613 63.2199269,18.1975155 C63.2007724,19.1538343 63.2199269,20.1006903 63.2100594,21.0569509 C65.0465712,21.0664137 66.8836633,21.0569509 68.7195946,21.0664137 C67.8965309,22.5435323 67.0160036,24.011072 66.1923595,25.4976533 C63.7875971,25.5165788 61.3828347,25.5072902 58.9687853,25.4976533 C58.9786528,22.4772349 58.9786528,19.4473538 58.9879399,16.4268774 C58.9786528,13.094014 59.0070944,9.77067143 58.9879399,6.44727078 Z M78.773974,6.30521336 C81.3110766,10.8405432 83.8290247,15.4043194 86.3568404,19.9491701 C87.3795754,21.804973 88.4295911,23.6418504 89.4331716,25.507116 C87.7580222,25.4976533 86.0915793,25.5260415 84.4257169,25.4976533 C82.5601832,22.0890298 80.6482143,18.7087945 78.783261,15.3001711 C77.3820792,17.6862365 76.0470675,20.110153 74.6841947,22.5056232 C74.1258115,23.4997929 73.5476934,24.4843258 73.0084648,25.4881325 C71.3611765,25.5165788 69.7138881,25.4976533 68.0665998,25.507116 C69.0986219,23.6513131 70.139931,21.7955102 71.1719531,19.9397073 C73.6997687,15.3948566 76.2461584,10.850006 78.773974,6.30521336 Z M10.2246644,11.5507142 C9.06024403,13.018312 8.50174479,14.9593377 8.74785129,16.8151406 C8.88988493,17.9325004 9.32533091,18.9833886 9.9122717,19.9302446 C9.8365243,19.87341 9.68508754,19.7503361 9.60934014,19.6935015 C9.42946182,19.6272042 9.42946182,19.8355009 9.5146704,19.9302446 C9.96903872,20.820266 10.7169355,21.5209162 11.5121381,22.117418 C12.2032678,22.4961604 12.8564368,22.9508371 13.5948724,23.2441825 C14.4752836,23.5566275 15.4030006,23.7649242 16.3401789,23.6891641 C17.4194487,23.5848416 18.5175829,23.3954704 19.4926638,22.8938283 C20.5055895,22.4015329 21.3576171,21.6156018 22.1055139,20.782415 C22.6356296,20.2426896 22.6924547,19.4473538 23.090056,18.8318684 C23.5350212,18.0838464 23.6201717,17.1843622 23.6296329,16.3322499 C23.6486133,15.4137822 23.4592738,14.5048352 23.1941869,13.6337393 C23.0616725,13.0277747 22.7208382,12.4975122 22.3895231,11.9862332 C21.3197725,10.4807844 19.7672119,9.27831793 17.9495645,8.85220371 C15.1379718,8.13262799 11.994948,9.26885517 10.2246644,11.5507142 Z M14.0681631,3.37001786 C11.5878855,3.97598246 9.30640857,5.25420902 7.35624672,6.87332695 C6.79768943,7.40353147 6.26751566,7.98110781 5.96464214,8.70074158 C5.89835591,8.86166646 5.86045319,9.0415749 5.75632227,9.19309508 C5.78470578,9.19309508 5.83206968,9.18357427 5.86045319,9.17411152 C6.40008813,8.42614754 6.96810658,7.69705102 7.64971711,7.0721609 C9.57143742,5.28265533 12.1274624,4.24111375 14.7213901,4.02335429 C17.6466329,3.758223 20.6381619,4.48726147 23.1184395,6.03061931 C23.9704672,6.51351006 24.7656698,7.09108641 25.4472803,7.80119937 C26.6590066,9.05103766 27.5299566,10.6323046 28.0316888,12.2987363 C28.5618626,13.8325733 28.9973666,15.461154 28.7890468,17.0991974 C28.5145567,18.8319845 28.476654,20.6403575 27.76666,22.2783429 C27.1607388,23.2157361 26.6022396,24.1817499 25.9774541,25.0999854 C23.9420837,27.4102327 21.3292336,29.3039447 18.3187823,30.0425039 C18.034773,30.0708922 17.7792054,30.2318171 17.4856769,30.2034288 C17.7792054,30.2697262 18.0442342,30.0992805 18.3377046,30.0992805 C21.2534862,29.5595551 23.9704672,28.0539322 25.9963764,25.8953212 C27.8897132,23.8785353 29.1677257,21.2557849 29.50856,18.5004978 C29.5180212,17.3642707 29.50856,16.2375643 29.50856,15.1013371 C29.5464047,14.4575215 29.3665264,13.8325733 29.2150896,13.2076832 C28.4293482,10.2251159 26.5359533,7.59296072 24.0840593,5.74656252 C23.364604,5.216358 22.6261685,4.69561623 21.7931212,4.35472486 C19.3790718,3.30372052 16.671552,3.0575728 14.0681631,3.37001786 L14.0681631,3.37001786 Z M13.6895422,1.13547256 C10.9725612,1.61836331 8.41653622,2.90605262 6.34332111,4.7240045 C4.11855315,6.66503024 2.43347818,9.22148335 1.54360582,12.033605 C1.22175192,13.6337393 0.880917631,15.26232 0.899898015,16.9003635 C1.24067426,19.3337427 1.97905181,21.7576592 3.36125326,23.812238 C4.30795068,25.232522 5.56698279,26.4349884 6.98702892,27.3628609 C7.06277632,27.4102327 7.14792685,27.4481418 7.22367425,27.47653 C6.39062696,26.8894909 5.68057487,26.1604525 4.95165849,25.4502814 C2.58497299,23.0547532 1.2595966,19.6935015 1.26905777,16.3322499 C1.25013543,13.453889 2.15898817,10.5849327 3.76831574,8.19892533 C4.45938744,7.48875431 4.92327498,6.59873291 5.58596317,5.85071087 C7.77277036,3.758223 10.5560376,2.32847627 13.4812803,1.58997505 C16.671552,1.11654705 19.9943961,1.65621433 22.9007165,3.04811004 C25.646081,4.35472486 28.0316888,6.44727078 29.565327,9.07942592 C30.7392086,11.0678235 31.3829745,13.3592034 31.4397995,15.6599879 C31.4776442,14.8172803 31.5533916,13.9461844 31.3072271,13.1224603 C31.0042955,11.8726221 30.7202863,10.5943955 30.1333455,9.44870556 C29.0825172,7.68758826 28.0033053,5.88861994 26.460264,4.51570779 C25.2863244,3.47416621 23.9137002,2.66936765 22.4557513,2.0917913 C21.1872,1.75095798 19.9091875,1.44791762 18.631175,1.12600981 C17.002867,0.832490259 15.3177921,0.851415768 13.6895422,1.13547256 L13.6895422,1.13547256 Z M13.5002027,0.235988404 C15.4976704,-0.104902972 17.5614243,-0.0764566545 19.5589501,0.321211248 C20.5434922,0.491598883 21.4522869,0.965084929 22.3043145,1.45738038 C23.2699343,2.03495672 24.2544764,2.5652193 25.2484797,3.07649831 C27.6436067,4.66716992 29.6032298,6.93962428 30.7202863,9.60968849 C31.3545329,11.086749 31.7332119,12.6679579 31.8941679,14.2681503 C32.2728468,16.3701009 32.064585,18.5478697 31.3735133,20.5645974 C30.8244172,22.5624578 29.565327,24.2288895 28.5524014,25.9992373 C28.4103678,26.2359803 28.2115671,26.444277 28.0316888,26.6620365 C26.7252928,28.2339568 25.1822515,29.6542407 23.2699343,30.4401138 C23.3550848,30.3265027 23.4024487,30.2034288 23.4213711,30.0708922 C23.2036481,30.118206 22.9859251,30.1752147 22.7682021,30.241454 C22.8912553,30.0805291 23.0805948,29.9951321 23.251012,29.881463 C23.8757974,29.4743903 24.4721994,29.0293506 25.0402179,28.5464599 C25.1348876,28.461237 25.267402,28.4139233 25.3053047,28.2813286 C25.0780625,28.3760722 24.9360869,28.5938317 24.7278251,28.7263683 C21.7268349,30.8946163 17.9684868,32.08762 14.2575606,31.7657122 C10.4329263,31.4532091 6.78822827,29.5974642 4.23220328,26.7380288 C2.46186169,24.7780195 1.17438803,22.3824913 0.521219047,19.8260382 C-0.255061228,16.8909007 -0.169852656,13.7284249 0.814631399,10.850006 C1.38270789,9.18357427 2.21575519,7.60242347 3.33281171,6.23891602 C5.08423095,4.05174255 7.32780516,2.21486516 9.9122717,1.1070843 C11.1050756,0.794639241 12.2789572,0.434822356 13.5002027,0.235988404 L13.5002027,0.235988404 Z" id="Stroke-3" stroke="#858585" stroke-width="0.094"></path>
                <path d="M9.67176347,17.7745875 C10.323563,20.3919111 12.7795392,22.4895125 15.5000231,22.5557305 C14.8010211,22.3289205 14.1303407,22.0360083 13.4691007,21.7242098 C12.8173012,21.2800909 12.0805373,20.9399628 11.5137602,20.3635815 C10.654154,19.5227334 9.87957017,18.5116185 9.6056221,17.3210254 C9.56786013,17.4722321 9.62450309,17.6234387 9.67176347,17.7745875 Z M18.8533675,11.1888131 C19.4012636,11.6707047 19.9113399,12.1809258 20.3553327,12.7478639 C21.1959999,13.815522 21.8383589,15.1573218 21.6777547,16.5462216 C21.5927323,17.585666 21.0070742,18.483289 20.459236,19.3336962 C19.9680408,20.0706693 19.4201446,20.7981993 18.7117022,21.3555204 C18.3621723,21.6389895 17.908739,21.7523655 17.5025661,21.9507301 C17.1247147,22.1303242 16.7752426,22.3665194 16.3690118,22.4704523 C16.9641684,22.5935032 17.5498265,22.3665194 18.0976647,22.1775401 C19.5713084,21.6011588 20.7803866,20.4578974 21.5266489,19.0783249 C22.0933681,17.8876159 22.2162103,16.5271614 22.0556061,15.2326354 C21.7627771,14.0610445 21.1487975,12.9933285 20.3647732,12.0767612 C20.0435647,11.7555195 19.6846522,11.4153914 19.2123379,11.3775607 C19.0801131,11.3305187 18.9762098,11.2454722 18.8533675,11.1888131 L18.8533675,11.1888131 Z M13.7146694,9.66753505 C13.6202644,9.70530775 13.5163611,9.75258155 13.4407213,9.82818488 C15.5094636,8.93994712 18.0032018,9.16675712 19.8735779,10.4140093 C20.3647732,10.8675134 21.0071322,11.1604257 21.3566042,11.7462501 C22.0461656,12.6911469 22.6507047,13.7210902 22.9435338,14.8549085 C23.4064076,17.5195059 22.2350913,20.3824679 20.0435647,21.960405 C19.4579645,22.4232364 18.7589047,22.7066475 18.0693432,22.9809051 C17.559267,23.1698266 16.9924898,23.141497 16.4729731,23.3021469 C16.8130046,23.3115901 17.1625346,23.4722399 17.5025661,23.3680753 C18.1071631,23.2076572 18.7305832,23.0658937 19.2973603,22.7728077 C20.3080723,22.1586537 21.3377232,21.4877828 21.9989632,20.4767838 C22.1028086,20.2973055 22.2729112,20.1365398 22.2917922,19.9194047 L22.3389947,19.8344161 C22.3484352,19.824915 22.3673162,19.7966434 22.3767567,19.7776992 C22.773547,19.2202622 22.8301899,18.52083 23.0002347,17.8690771 C23.3969671,16.4517319 23.2269223,14.9115675 22.6507047,13.5698836 C21.9045003,11.8596261 20.4875575,10.4706684 18.7872261,9.71475092 C17.852096,9.28013315 16.8130046,9.16675712 15.8022926,9.11948331 C15.0749113,9.15731394 14.3853498,9.40295235 13.7146694,9.66753505 L13.7146694,9.66753505 Z M10.2668621,11.5951014 C12.0332769,9.31790585 15.1694321,8.18408761 17.9748803,8.90217443 C19.7885556,9.32734902 21.3377232,10.5273853 22.4051361,12.0297191 C22.7357271,12.5399402 23.0758165,13.0691056 23.2080414,13.6738164 C23.472491,14.5431099 23.6614746,15.4501761 23.6425357,16.3667433 C23.6330952,17.2170925 23.5481308,18.1147155 23.104138,18.8611898 C22.7074056,19.4754017 22.6507047,20.2689181 22.1217475,20.8076425 C21.3754852,21.6391053 20.5253195,22.4234102 19.5146075,22.914745 C18.5416575,23.4155808 17.4459231,23.6045023 16.3690118,23.7084351 C15.4338817,23.7840385 14.5081921,23.5761727 13.6297049,23.2643162 C12.8928831,22.971462 12.2411415,22.517842 11.5515221,22.1399412 C10.7580573,21.5446736 10.011795,20.8456469 9.55841963,19.9572354 C9.47339727,19.8627457 9.47339727,19.65488 9.65288249,19.7210401 C9.72846435,19.7777571 9.87957017,19.9005763 9.95515203,19.9572354 C9.36949393,19.0123965 8.93499955,17.9635668 8.79327631,16.8486349 C8.54770764,14.996614 9.10498635,13.0596624 10.2668621,11.5951014 L10.2668621,11.5951014 Z" id="Stroke-6" stroke="#858585" stroke-width="0.094"></path>
            </g>
        </g>
    </g>
</svg>